HIERARCHY
ROOT Hips
{
	OFFSET 0.00000 0.00000 0.00000
	CHANNELS 6 Xposition Yposition Zposition Zrotation Yrotation Xrotation 
	JOINT LHipJoint
	{
		OFFSET 0 0 0
		CHANNELS 3 Zrotation Yrotation Xrotation
		JOINT LeftUpLeg
		{
			OFFSET 1.29432 -1.88279 0.59910
			CHANNELS 3 Zrotation Yrotation Xrotation
			JOINT LeftLeg
			{
				OFFSET 2.63039 -7.22694 0.00000
				CHANNELS 3 Zrotation Yrotation Xrotation
				JOINT LeftFoot
				{
					OFFSET 2.70674 -7.43672 0.00000
					CHANNELS 3 Zrotation Yrotation Xrotation
					JOINT LeftToeBase
					{
						OFFSET 0.15066 -0.41394 2.09027
						CHANNELS 3 Zrotation Yrotation Xrotation
						End Site
						{
							OFFSET 0.00000 -0.00000 1.07518
						}
					}
				}
			}
		}
	}
	JOINT RHipJoint
	{
		OFFSET 0 0 0
		CHANNELS 3 Zrotation Yrotation Xrotation
		JOINT RightUpLeg
		{
			OFFSET -1.37068 -1.88279 0.59910
			CHANNELS 3 Zrotation Yrotation Xrotation
			JOINT RightLeg
			{
				OFFSET -2.57023 -7.06166 0.00000
				CHANNELS 3 Zrotation Yrotation Xrotation
				JOINT RightFoot
				{
					OFFSET -2.76461 -7.59570 0.00000
					CHANNELS 3 Zrotation Yrotation Xrotation
					JOINT RightToeBase
					{
						OFFSET -0.24175 -0.64785 2.19719
						CHANNELS 3 Zrotation Yrotation Xrotation
						End Site
						{
							OFFSET -0.00000 -0.00000 1.14803
						}
					}
				}
			}
		}
	}
	JOINT LowerBack
	{
		OFFSET 0 0 0
		CHANNELS 3 Zrotation Yrotation Xrotation
		JOINT Spine
		{
			OFFSET -0.03138 2.03983 -0.23106
			CHANNELS 3 Zrotation Yrotation Xrotation
			JOINT Spine1
			{
				OFFSET -0.00325 2.06238 -0.06878
				CHANNELS 3 Zrotation Yrotation Xrotation
				JOINT Neck
				{
					OFFSET 0 0 0
					CHANNELS 3 Zrotation Yrotation Xrotation
					JOINT Neck1
					{
						OFFSET -0.00002 1.75318 0.18090
						CHANNELS 3 Zrotation Yrotation Xrotation
						JOINT Head
						{
							OFFSET 0.08806 1.75856 -0.25387
							CHANNELS 3 Zrotation Yrotation Xrotation
							End Site
							{
								OFFSET 0.02554 1.78597 -0.10684
							}
						}
					}
				}
				JOINT LeftShoulder
				{
					OFFSET 0 0 0
					CHANNELS 3 Zrotation Yrotation Xrotation
					JOINT LeftArm
					{
						OFFSET 3.09657 1.33597 -0.04414
						CHANNELS 3 Zrotation Yrotation Xrotation
						JOINT LeftForeArm
						{
							OFFSET 5.34298 -0.00000 -0.00000
							CHANNELS 3 Zrotation Yrotation Xrotation
							JOINT LeftHand
							{
								OFFSET 3.67262 -0.00000 -0.00000
								CHANNELS 3 Zrotation Yrotation Xrotation
								JOINT LeftFingerBase
								{
									OFFSET 0 0 0
									CHANNELS 3 Zrotation Yrotation Xrotation
									JOINT LeftHandIndex1
									{
										OFFSET 0.59930 -0.00000 -0.00000
										CHANNELS 3 Zrotation Yrotation Xrotation
										End Site
										{
											OFFSET 0.48317 -0.00000 -0.00000
										}
									}
								}
								JOINT LThumb
								{
									OFFSET 0 0 0
									CHANNELS 3 Zrotation Yrotation Xrotation
									End Site
									{
										OFFSET 0.49055 -0.00000 0.49055
									}
								}
							}
						}
					}
				}
				JOINT RightShoulder
				{
					OFFSET 0 0 0
					CHANNELS 3 Zrotation Yrotation Xrotation
					JOINT RightArm
					{
						OFFSET -3.16460 1.32273 -0.23382
						CHANNELS 3 Zrotation Yrotation Xrotation
						JOINT RightForeArm
						{
							OFFSET -5.54967 -0.01834 0.03348
							CHANNELS 3 Zrotation Yrotation Xrotation
							JOINT RightHand
							{
								OFFSET -3.69401 -0.00000 0.00000
								CHANNELS 3 Zrotation Yrotation Xrotation
								JOINT RightFingerBase
								{
									OFFSET 0 0 0
									CHANNELS 3 Zrotation Yrotation Xrotation
									JOINT RightHandIndex1
									{
										OFFSET -0.63811 -0.00000 0.00000
										CHANNELS 3 Zrotation Yrotation Xrotation
										End Site
										{
											OFFSET -0.51446 -0.00000 0.00000
										}
									}
								}
								JOINT RThumb
								{
									OFFSET 0 0 0
									CHANNELS 3 Zrotation Yrotation Xrotation
									End Site
									{
										OFFSET -0.52232 -0.00000 0.52232
									}
								}
							}
						}
					}
				}
			}
		}
	}
}
MOTION
Frames: 15
Frame Time: .0083333
3.7699 17.6366 -14.2138 0 0 0 0 0 0 -21 0 0 0 0 0 0 0 0 0 0 0 0 0 0 21 0 0 0 0 0 0 0 0 0 0 0 0 0 0 0 0 0 0 0 0 0 0 -16 0 0 21 0 0 11 0 0 0 -8 0 0 0 0 0 0 0 0 0 0 0 0 0 0 0 0 0 0 0 0 8 0 0 0 0 0 0 0 0 0 0 0 0 0 0 0 0 0
3.7699 17.6366 -14.2138 -1.6961 3.1401 -2.2904 0.0000 0.0000 0.0000 -14.3494 0.1293 -14.7568 10.5315 17.6981 61.2506 -0.0905 -6.9793 -2.2577 0.0626 -1.6147 -4.4419 0.0000 0.0000 0.0000 24.7530 8.1296 -16.3147 -4.0630 -12.2438 36.5999 -0.7349 -4.9233 -18.7184 -0.0224 -0.9653 2.6533 -4.2768 -1.2258 5.4538 -0.2202 -1.8319 2.8322 2.2669 -0.9585 -0.0102 2.4271 1.9858 -11.2306 0.3734 2.1694 32.0227 0.0155 1.2945 12.4756 0.0000 0.0000 0.0000 -93.5492 -17.4010 8.8024 16.4623 -26.1435 -3.8474 -0.0000 -0.0000 16.6415 21.4013 39.8274 14.0911 -7.1250 0.0000 -0.0000 -21.7246 70.7545 -13.5544 0.0000 0.0000 0.0000 91.5666 -5.2605 10.9529 -12.6616 20.7895 -2.3318 0.0000 0.0000 31.9478 -10.1062 23.9582 -4.1397 7.1250 -0.0000 -0.0000 11.8110 -6.1140 10.7217
3.6976 17.6231 -14.0840 -0.6149 3.2154 -1.8278 0.0000 0.0000 0.0000 -15.4496 -1.1925 -16.4152 10.9904 17.9304 62.7503 -0.0977 -7.1848 -2.2608 0.0057 -0.4855 -1.3342 0.0000 0.0000 0.0000 23.6686 7.3478 -16.9733 -4.2151 -12.4413 37.3116 -0.8252 -4.1119 -19.1282 -0.0153 -0.7979 2.1929 -6.2380 -1.2654 5.1399 -0.4915 -1.9559 2.7862 3.0812 -1.0433 0.1912 2.4624 2.0295 -11.6672 0.7356 2.0894 32.2980 0.1440 1.3082 12.6788 0.0000 0.0000 0.0000 -93.7706 -17.5804 8.8892 16.6466 -26.3896 -3.9290 -0.0000 -0.0000 16.2579 22.5232 38.3671 14.4344 -7.1250 0.0000 -0.0000 -18.2006 69.7977 -10.9198 0.0000 0.0000 0.0000 91.3655 -4.6592 11.9651 -12.7164 20.8703 -2.3513 0.0000 0.0000 31.4503 -10.5727 24.1423 -4.3656 7.1250 -0.0000 -0.0000 11.5304 -5.8811 10.5083
3.6398 17.5912 -13.9588 -1.2845 2.7308 -2.0465 0.0000 0.0000 0.0000 -14.4931 -1.8672 -17.6984 11.4322 18.1402 64.1773 -0.0005 -5.4093 -3.7729 0.2062 -2.9237 -8.0665 0.0000 0.0000 0.0000 24.7139 6.9758 -16.6596 -4.3128 -12.5654 37.7628 -1.0174 -3.0934 -20.4056 -0.0780 -1.8016 4.9576 -6.0860 -1.2698 5.6480 -0.3995 -1.9935 2.7397 3.1092 -1.0506 -0.1389 2.4698 2.2041 -11.8604 1.0284 2.2355 32.5082 0.2804 1.4096 12.8065 0.0000 -0.0000 0.0000 -93.8427 -17.5861 8.5052 16.6518 -26.3965 -3.9313 -0.0000 -0.0000 16.1181 22.4895 36.4532 13.8195 -7.1250 0.0000 -0.0000 -15.9042 67.9967 -8.8742 0.0000 -0.0000 0.0000 91.1223 -4.3997 13.5639 -12.8770 21.1067 -2.4088 0.0000 0.0000 30.4265 -11.2570 24.0734 -4.6416 7.1250 -0.0000 -0.0000 11.1087 -5.8718 10.1104
3.5745 17.5593 -13.8386 -0.3061 2.3836 -1.8577 0.0000 0.0000 0.0000 -15.4803 -2.9828 -19.2200 11.7907 18.3008 65.3239 0.0254 -4.9521 -4.2672 0.1267 -2.2949 -6.3213 0.0000 0.0000 0.0000 23.8754 6.7172 -16.8518 -4.4313 -12.7133 38.3044 -1.1073 -2.5287 -20.9379 -0.0515 -1.4643 4.0275 -7.7892 -1.1944 5.6038 -0.7102 -1.9755 2.7341 3.7370 -1.0574 -0.0658 2.5313 2.3194 -11.8594 1.2679 2.3065 32.3642 0.3700 1.4769 12.7451 0.0000 0.0000 0.0000 -93.7778 -17.8836 8.6384 16.4436 -26.1185 -3.8392 -0.0000 -0.0000 15.8837 22.7762 33.1526 12.9319 -7.1250 0.0000 -0.0000 -12.3769 64.8915 -5.9984 0.0000 0.0000 0.0000 90.9610 -3.9376 14.6260 -13.1552 21.5141 -2.5099 0.0000 0.0000 29.9342 -12.0157 24.2267 -4.9915 7.1250 -0.0000 -0.0000 10.6492 -5.6309 9.7263
3.5332 17.5154 -13.7160 -1.4848 1.7898 -2.4674 0.0000 0.0000 0.0000 -13.9895 -3.3928 -20.0651 12.1365 18.4478 66.4210 0.0263 -6.2753 -5.0654 0.0299 -1.1154 -3.0663 0.0000 0.0000 0.0000 25.5029 6.1604 -16.1373 -4.5109 -12.8109 38.6648 -1.1862 -1.9693 -21.3713 -0.0382 -1.2613 3.4682 -6.9999 -1.0038 6.1521 -0.4791 -1.7141 3.0474 3.5326 -0.9282 -0.0980 2.6642 2.3386 -11.8523 1.3680 2.2687 31.9358 0.3741 1.4861 12.5667 -0.0000 -0.0000 0.0000 -93.7463 -18.2691 9.8110 16.4368 -26.1093 -3.8362 -0.0000 -0.0000 15.0980 23.0203 32.4317 12.8367 -7.1250 0.0000 -0.0000 -11.5088 64.2474 -5.4000 -0.0000 -0.0000 0.0000 90.8265 -3.3754 15.2393 -13.5688 22.1149 -2.6636 0.0000 0.0000 29.6625 -11.8198 24.1113 -4.8863 7.1250 -0.0000 -0.0000 10.7648 -5.7688 9.8070
3.4847 17.4796 -13.5886 -1.5738 1.1655 -2.6845 0.0000 0.0000 0.0000 -13.7892 -3.8416 -21.0238 12.3839 18.5483 67.2006 0.1016 -6.4036 -6.7659 0.0673 -1.6742 -4.6062 0.0000 0.0000 0.0000 25.8770 6.0007 -15.7860 -4.6350 -12.9605 39.2209 -1.3024 -1.1489 -22.0115 -0.0664 -1.6623 4.5733 -7.8257 -0.6741 6.1590 -0.2231 -1.3045 3.3681 4.2350 -0.7562 0.2174 2.7315 2.3317 -11.9671 1.0920 2.3296 31.5383 0.2627 1.4842 12.4320 0.0000 -0.0000 0.0000 -94.2487 -18.6621 11.1440 16.6688 -26.4191 -3.9388 -0.0000 -0.0000 14.7322 21.6771 33.4868 12.3697 -7.1250 0.0000 -0.0000 -13.9737 64.9118 -6.7923 0.0000 -0.0000 0.0000 90.2469 -2.7447 15.8724 -14.0087 22.7471 -2.8315 0.0000 0.0000 28.7458 -11.5933 24.0511 -4.7793 7.1250 -0.0000 -0.0000 10.9016 -5.8551 9.9181
3.4267 17.4503 -13.4628 -1.1904 0.8278 -2.7684 0.0000 0.0000 0.0000 -14.1362 -4.8380 -22.0272 12.5450 18.6117 67.7062 0.2130 -5.6107 -8.5331 0.1505 -2.4996 -6.8885 0.0000 0.0000 0.0000 25.7372 5.6684 -15.5380 -4.7281 -13.0709 39.6346 -1.3723 -0.7715 -22.4387 -0.0804 -1.8286 5.0322 -7.9860 -0.4326 6.9941 -0.9819 -1.0973 3.0084 3.5434 -0.6046 -0.6617 3.5270 2.3477 -11.7073 1.2956 2.0957 31.6157 0.1670 1.5001 12.4225 0.0000 -0.0000 0.0000 -93.2340 -18.0263 12.5620 16.8332 -26.6374 -4.0123 -0.0000 -0.0000 14.4840 23.2344 33.7777 13.4245 -7.1250 0.0000 -0.0000 -12.3498 65.6346 -6.1973 0.0000 -0.0000 0.0000 91.1563 -3.1471 16.0563 -14.5046 23.4515 -3.0260 0.0000 0.0000 28.0968 -12.5809 24.2128 -5.2298 7.1250 -0.0000 -0.0000 10.3019 -5.5764 9.4089
3.3655 17.4244 -13.3311 -0.7318 0.4819 -2.7305 0.0000 0.0000 0.0000 -14.5474 -5.9733 -23.1171 12.5842 18.6268 67.8290 0.2796 -5.1207 -9.5270 0.1063 -2.1025 -5.7891 0.0000 0.0000 0.0000 25.5241 5.4571 -15.3649 -4.8283 -13.1878 40.0757 -1.4204 -0.5902 -22.7574 -0.0981 -2.0201 5.5613 -8.7088 -0.2265 7.2016 -1.3969 -0.9010 2.9648 3.5046 -0.5014 -0.8373 3.6555 2.3692 -11.8883 1.5805 1.9965 31.5288 0.2408 1.5065 12.4246 0.0000 0.0000 0.0000 -92.6536 -17.8413 14.0258 17.0124 -26.8741 -4.0929 -0.0000 -0.0000 14.1683 23.0114 33.8572 13.3123 -7.1250 0.0000 -0.0000 -12.6911 65.6489 -6.3752 0.0000 0.0000 0.0000 91.4562 -3.0384 16.5874 -15.0546 24.2221 -3.2483 0.0000 0.0000 27.2522 -13.7106 24.2080 -5.7129 7.1250 -0.0000 -0.0000 9.6078 -5.4395 8.7809
3.3136 17.3905 -13.1965 -2.0187 -0.1280 -2.9132 0.0000 0.0000 0.0000 -12.9524 -6.6029 -24.0445 12.5849 18.6271 67.8311 0.3435 -4.4144 -10.4364 0.0675 -1.6764 -4.6120 0.0000 0.0000 0.0000 27.2350 5.6016 -14.7555 -4.8871 -13.2555 40.3324 -1.4823 -0.0895 -23.0693 -0.2483 -3.2063 8.8536 -7.7073 -0.1219 7.2744 -1.1732 -0.6902 3.1438 3.1624 -0.3997 -0.7330 3.5448 2.5006 -12.0165 1.7210 2.1677 31.3428 0.3367 1.5849 12.3735 0.0000 0.0000 0.0000 -92.4673 -17.8066 14.9242 17.2352 -27.1668 -4.1942 -0.0000 -0.0000 14.3944 22.1973 34.2133 12.9217 -7.1250 0.0000 -0.0000 -13.9976 65.7632 -7.0794 0.0000 0.0000 0.0000 91.3643 -2.8148 17.4084 -15.6713 25.0729 -3.5055 0.0000 0.0000 26.2295 -14.2406 24.3332 -5.9699 7.1250 -0.0000 -0.0000 9.2889 -5.2451 8.5160
3.2648 17.3582 -13.0592 -2.9972 -0.6056 -3.1723 0.0000 0.0000 0.0000 -11.8142 -7.3867 -24.7710 12.4910 18.5906 67.5368 0.4125 -4.9103 -11.4459 0.0699 -1.7058 -4.6933 0.0000 0.0000 0.0000 28.5710 5.4845 -14.0990 -4.9339 -13.3090 40.5365 -1.5597 0.5123 -23.4709 -0.5038 -4.5503 12.6303 -6.8604 0.0404 7.4963 -1.0952 -0.4347 3.1966 2.7521 -0.2641 -0.8407 3.6577 2.5733 -11.5356 1.6811 2.2864 31.0901 0.3076 1.6425 12.1740 0.0000 0.0000 0.0000 -92.2869 -17.5700 15.9894 17.4026 -27.3854 -4.2709 -0.0000 -0.0000 15.1068 20.3704 35.7812 12.2489 -7.1250 0.0000 -0.0000 -17.7575 66.7286 -9.4217 0.0000 0.0000 0.0000 91.3312 -2.8896 17.9948 -16.2554 25.8657 -3.7567 0.0000 0.0000 25.0401 -14.8974 24.4458 -6.2825 7.1250 -0.0000 -0.0000 8.8923 -5.0440 8.1772
3.2159 17.3146 -12.9214 -3.4998 -0.6689 -3.3963 0.0000 0.0000 0.0000 -11.2769 -8.6588 -25.4581 12.3215 18.5233 67.0041 0.4916 -4.9307 -12.4812 0.1457 -2.4600 -6.7788 0.0000 0.0000 0.0000 29.4068 4.5800 -13.5877 -4.9536 -13.3314 40.6220 -1.6392 0.6463 -24.0283 -0.2395 -3.1492 8.6945 -6.6508 0.0224 7.8448 -1.0158 -0.4597 3.4570 2.7205 -0.2838 -0.7626 3.6404 2.7768 -11.9856 1.4372 2.6426 31.0900 0.2752 1.7681 12.2741 -0.0000 -0.0000 0.0000 -92.1002 -17.7889 17.0055 17.7071 -27.7805 -4.4119 -0.0000 -0.0000 15.4786 18.2221 37.2907 11.2799 -7.1250 0.0000 -0.0000 -22.0590 67.4774 -12.1631 -0.0000 -0.0000 0.0000 90.9650 -2.3301 19.0988 -16.6577 26.4043 -3.9339 0.0000 0.0000 23.6839 -16.3623 24.3413 -6.9000 7.1250 -0.0000 -0.0000 7.9856 -4.9446 7.3407
3.1764 17.2669 -12.7958 -3.7489 -1.1416 -3.3433 0.0000 0.0000 0.0000 -11.0112 -9.5586 -26.4377 12.0662 18.4185 66.1984 0.5652 -4.5599 -13.3840 0.1313 -2.3353 -6.4332 0.0000 0.0000 0.0000 29.8626 3.9874 -13.3514 -4.9638 -13.3429 40.6659 -1.6810 1.0356 -24.2223 -0.1495 -2.4919 6.8671 -6.5720 0.2456 8.0240 -1.0548 -0.1746 3.4459 2.6131 -0.1364 -0.9015 3.7350 2.8464 -12.0218 1.1512 2.8117 31.0904 0.1752 1.8183 12.2901 0.0000 0.0000 0.0000 -91.7397 -17.6636 18.6442 17.9166 -28.0502 -4.5099 -0.0000 -0.0000 14.8361 17.9650 37.0495 11.0540 -7.1250 0.0000 -0.0000 -22.0619 67.1833 -12.0180 0.0000 0.0000 0.0000 90.7724 -2.2782 19.8354 -17.2208 27.1479 -4.1876 0.0000 0.0000 22.4355 -18.1336 24.2869 -7.6717 7.1250 -0.0000 -0.0000 6.8918 -4.7367 6.3462
3.1263 17.2482 -12.6589 -3.9045 -1.3656 -3.2379 0.0000 0.0000 0.0000 -10.8345 -10.4767 -27.3563 11.7024 18.2620 65.0423 0.6195 -4.9483 -14.0143 0.0317 -1.1501 -3.1618 0.0000 0.0000 0.0000 30.2226 3.5058 -13.0842 -4.9460 -13.3227 40.5889 -1.6905 1.3035 -24.2166 -0.1717 -2.6695 7.3598 -6.5289 0.4508 8.0607 -1.2052 0.0908 3.3609 2.4100 0.0028 -1.0352 3.8628 2.8691 -11.6790 0.9992 2.8828 30.9602 0.0984 1.8455 12.1720 0.0000 0.0000 0.0000 -91.2158 -17.4559 20.3739 18.0010 -28.1584 -4.5497 -0.0000 -0.0000 14.0928 18.1616 36.8085 11.1193 -7.1250 0.0000 -0.0000 -21.5403 67.0239 -11.6452 0.0000 0.0000 0.0000 90.8078 -2.5915 20.3407 -18.0161 28.1778 -4.5568 0.0000 0.0000 21.2431 -19.3005 24.0338 -8.1173 7.1250 -0.0000 -0.0000 6.1516 -4.8137 5.6470
3.0698 17.2448 -12.5272 -4.5479 -1.7990 -2.9788 0.0000 0.0000 0.0000 -9.9739 -11.1983 -28.6852 11.2801 18.0695 63.6880 0.6507 -4.8726 -14.3674 0.0099 -0.6422 -1.7647 0.0000 0.0000 0.0000 31.2307 3.4761 -12.7798 -4.9150 -13.2874 40.4542 -1.6868 1.1232 -24.2401 -0.0981 -2.0203 5.5617 -6.0346 0.6323 8.0210 -1.2069 0.3688 3.3155 2.1073 0.1470 -1.0851 3.9073 2.9876 -11.3816 0.8153 3.1206 30.6712 0.0460 1.9322 12.0015 0.0000 0.0000 0.0000 -90.7815 -17.6607 21.2743 17.9156 -28.0490 -4.5095 -0.0000 -0.0000 14.8922 17.6877 35.4866 10.4883 -7.1250 0.0000 -0.0000 -20.5869 65.6804 -10.4796 0.0000 0.0000 0.0000 90.7409 -2.6316 20.9869 -18.7282 29.0796 -4.8981 0.0000 0.0000 20.2604 -20.3718 23.4775 -8.4151 7.1250 -0.0000 -0.0000 5.4392 -5.2155 4.9451
